<?xml version="1.0" encoding="UTF-8" standalone="no"?>
<!-- Created with Inkscape (http://www.inkscape.org/) -->

<svg
   xmlns:dc="http://purl.org/dc/elements/1.1/"
   xmlns:cc="http://creativecommons.org/ns#"
   xmlns:rdf="http://www.w3.org/1999/02/22-rdf-syntax-ns#"
   xmlns:svg="http://www.w3.org/2000/svg"
   xmlns="http://www.w3.org/2000/svg"
   xmlns:sodipodi="http://sodipodi.sourceforge.net/DTD/sodipodi-0.dtd"
   xmlns:inkscape="http://www.inkscape.org/namespaces/inkscape"
   width="210mm"
   height="297mm"
   viewBox="0 0 210 297"
   version="1.1"
   id="svg8"
   inkscape:version="0.92.4 5da689c313, 2019-01-14"
   sodipodi:docname="VimLogoTrans.svg">
  <defs
     id="defs2" />
  <sodipodi:namedview
     id="base"
     pagecolor="#ffffff"
     bordercolor="#666666"
     borderopacity="1.0"
     inkscape:pageopacity="0.0"
     inkscape:pageshadow="2"
     inkscape:zoom="0.5"
     inkscape:cx="329.07733"
     inkscape:cy="273.76753"
     inkscape:document-units="mm"
     inkscape:current-layer="g5056"
     showgrid="false"
     inkscape:window-width="1362"
     inkscape:window-height="371"
     inkscape:window-x="0"
     inkscape:window-y="0"
     inkscape:window-maximized="0" />
  <metadata
     id="metadata5">
    <rdf:RDF>
      <cc:Work
         rdf:about="">
        <dc:format>image/svg+xml</dc:format>
        <dc:type
           rdf:resource="http://purl.org/dc/dcmitype/StillImage" />
        <dc:title></dc:title>
        <cc:license
           rdf:resource="https://www.gnu.org/licenses/gpl.html" />
      </cc:Work>
    </rdf:RDF>
  </metadata>
  <g
     style="display:inline;opacity:1"
     inkscape:label="Logo"
     id="g5056"
     inkscape:groupmode="layer">
    <g
       style="display:inline"
       id="g5536"
       mask="none"
       transform="translate(75.507128,-105.46299)">
      <path
         style="opacity:1;fill:#5bcefa;fill-opacity:1;stroke:none;stroke-width:1.98618746;stroke-miterlimit:4;stroke-dasharray:none;stroke-opacity:1"
         d="M 30.097771,185.89525 57.494048,213.3453 H 2.2794575 Z"
         id="rect5478"
         inkscape:connector-curvature="0"
         sodipodi:nodetypes="cccc" />
      <path
         style="opacity:1;fill:#f5a9b8;fill-opacity:1;stroke:none;stroke-width:1.98618722;stroke-miterlimit:4;stroke-dasharray:none;stroke-opacity:1"
         d="M 2.2794575,213.3453 H 57.494048 l 26.566591,26.96182 H -24.661309 Z"
         id="rect5480"
         inkscape:connector-curvature="0"
         sodipodi:nodetypes="ccccc" />
      <path
         style="opacity:1;fill:#ffffff;fill-opacity:1;stroke:none;stroke-width:1.98618722;stroke-miterlimit:4;stroke-dasharray:none;stroke-opacity:1"
         d="M -24.661309,240.30712 H 84.060639 l 13.815338,13.45742 -14.189516,13.5044 H -25.035487 l -12.928531,-13.22043 z"
         id="rect5482"
         inkscape:connector-curvature="0"
         sodipodi:nodetypes="ccccccc" />
      <path
         style="opacity:1;fill:#f5a9b8;fill-opacity:1;stroke:none;stroke-width:1.98618722;stroke-miterlimit:4;stroke-dasharray:none;stroke-opacity:1"
         d="M -25.035487,267.26894 H 83.686461 L 57.494048,294.23076 H 2.2794575 Z"
         id="rect5484"
         inkscape:connector-curvature="0"
         sodipodi:nodetypes="ccccc" />
      <path
         style="opacity:1;fill:#5bcefa;fill-opacity:1;stroke:none;stroke-width:1.98618746;stroke-miterlimit:4;stroke-dasharray:none;stroke-opacity:1"
         d="M 2.2794575,294.23076 H 57.494048 l -27.679865,27.68705 z"
         id="rect5486"
         inkscape:connector-curvature="0"
         sodipodi:nodetypes="cccc" />
      <path
         id="path5026"
         d="m 30.097771,185.89525 -68.061789,68.15326 67.778201,67.8693 68.061792,-68.15327 z"
         style="display:inline;opacity:1;fill:none;stroke:#000000;stroke-width:2.1837523;stroke-linecap:butt;stroke-linejoin:miter;stroke-miterlimit:4;stroke-dasharray:none;stroke-opacity:1"
         inkscape:connector-curvature="0" />
    </g>
    <g
       id="g5647"
       transform="translate(75.507128,-105.46299)">
      <path
         style="fill:none;stroke:#000000;stroke-width:7.27917528;stroke-linecap:butt;stroke-linejoin:miter;stroke-miterlimit:4;stroke-dasharray:none;stroke-opacity:1"
         d="m -24.946741,193.29436 h 43.72144 l 2.663699,2.66728 v 8.18579 l -2.112591,2.5753 h -4.776293 v 40.65305 l 41.149588,-40.65305 h -6.797029 l -2.388148,-2.5753 v -8.64567 l 2.204444,-2.02345 h 44.272549 l 2.20444,2.2074 v 8.09382 L -4.9230533,306.60781 H -16.312672 l -3.296774,-1.90595 v -98.34702 h -5.520995 l -2.020737,-2.02346 v -8.64567 z"
         id="path5022"
         inkscape:connector-curvature="0" />
      <path
         style="fill:#5bcefa;fill-opacity:1;stroke:#000000;stroke-width:0.36395875px;stroke-linecap:butt;stroke-linejoin:miter;stroke-opacity:1"
         d="m 93.021459,197.19488 2.218672,-1.28267 v 8.04645 L -5.3906035,306.92595 H -16.074409 l 1.020732,-2.03096 h 8.1835755 L 92.891562,201.74743 Z"
         id="path5042"
         inkscape:connector-curvature="0" />
      <path
         style="fill:#fcdee4;fill-opacity:1;stroke:#000000;stroke-width:0.36395875px;stroke-linecap:butt;stroke-linejoin:miter;stroke-opacity:1"
         id="path5040"
         d="m 50.418157,195.50211 -1.557152,1.55924 v 5.72482 l 1.363929,1.36576 h 7.206091 v 5.53134 L 9.761708,258.0654 v -53.84518 h 7.922154 l 1.625349,-1.62753 v -5.79311 l -1.500322,-1.1609 h -41.690762 l -1.363929,1.36577 v 5.9183 l 1.386661,1.38852 h 7.251556 v 99.15434 l 1.363929,1.36576 h 8.2404038 L 92.893178,201.61389 v -4.55254 l -1.557152,-1.55924 z"
         inkscape:connector-curvature="0" />
    </g>
    <path
       inkscape:connector-curvature="0"
       id="path5028"
       d="M 94.746521,91.99204 97.214583,90.69131 94.681572,88.1549 H 50.581204 l -2.240744,2.24375 v 8.48723 l 2.4843,2.48764 1.185322,-2.48764 -1.558775,-1.56087 v -5.98334 l 1.169081,-1.04058 H 93.70734 Z"
       style="fill:#fefefe;fill-opacity:1;stroke:#000000;stroke-width:0.36395875px;stroke-linecap:butt;stroke-linejoin:miter;stroke-opacity:1" />
    <path
       inkscape:connector-curvature="0"
       id="path5034"
       d="m 51.70232,98.68444 -0.734816,2.39136 h 5.327405 l 2.939256,-2.39136 z"
       style="fill:#5bcefa;fill-opacity:1;stroke:#000000;stroke-width:0.36395875px;stroke-linecap:butt;stroke-linejoin:miter;stroke-opacity:1" />
    <path
       inkscape:connector-curvature="0"
       id="path5038"
       d="m 94.649227,91.69433 2.112595,-1.37963 v 8.36974 l -2.434072,2.43735 h -4.730366 v 41.25087 l -4.317035,10.20926 V 98.68444 h 7.899254 l 1.469624,-1.19567 z"
       style="fill:#5bcefa;fill-opacity:1;stroke:#000000;stroke-width:0.36395875px;stroke-linecap:butt;stroke-linejoin:miter;stroke-opacity:1" />
    <path
       inkscape:connector-curvature="0"
       id="path5044"
       d="m 132.99734,98.8224 -2.25036,2.34537 h -5.87852 l 1.37778,-2.34537 c 0.0459,0 6.7511,0 6.7511,0 z"
       style="fill:#5bcefa;fill-opacity:1;stroke:#000000;stroke-width:0.36395875px;stroke-linecap:butt;stroke-linejoin:miter;stroke-opacity:1" />
    <path
       inkscape:connector-curvature="0"
       id="path5032"
       d="m 58.827048,98.68444 v 99.33322 l 1.285925,1.47161 -1.008426,1.92448 -2.849347,-2.84423 v -97.30978 z"
       style="fill:#fefefe;fill-opacity:1;stroke:#000000;stroke-width:0.36395875px;stroke-linecap:butt;stroke-linejoin:miter;stroke-opacity:1" />
    <path
       inkscape:connector-curvature="0"
       d="m 125.92529,90.03912 -1.55716,1.55924 v 5.72482 l 1.36393,1.36576 h 7.20609 v 5.53134 L 85.268836,152.60241 V 98.75723 h 7.922154 l 1.625349,-1.62753 v -5.79311 l -1.500322,-1.1609 H 51.625255 l -1.363929,1.36577 v 5.9183 l 1.386661,1.38852 h 7.251556 v 99.15434 l 1.363929,1.36576 h 8.240404 L 168.4003,96.1509 v -4.55254 l -1.55715,-1.55924 z"
       id="path5030"
       style="fill:none;stroke:#000000;stroke-width:0.36395875px;stroke-linecap:butt;stroke-linejoin:miter;stroke-opacity:1" />
    <path
       inkscape:connector-curvature="0"
       id="path5036"
       d="m 124.88286,101.37027 1.16908,-2.40634 -1.68867,-1.56087 v -5.33298 l 1.94847,-1.95109 h 40.65807 l 1.55878,2.08117 2.20826,-1.56088 -2.27321,-2.27627 h -43.71068 l -2.17579,2.17872 V 99.094 l 2.25698,2.12994 m -35.324137,41.06554 -4.246042,10.31638 47.932359,-48.12685 v -5.7232 z"
       style="fill:#f5a9b8;fill-opacity:1;stroke:#000000;stroke-width:0.36395875px;stroke-linecap:butt;stroke-linejoin:miter;stroke-opacity:1" />
    <g
       id="g5870"
       transform="translate(75.507128,-105.46299)">
      <g
         id="g5642">
        <path
           d="m 33.493983,262.33847 a 0.44846355,0.44906631 0 0 0 -0.204589,0.10244 l -1.932233,1.66167 a 0.44846355,0.44906631 0 0 0 -0.125026,0.19349 l -1.932233,5.41752 a 0.44846355,0.44906631 0 0 0 0.102295,0.46663 l 1.477589,1.47958 a 0.44846355,0.44906631 0 0 0 0.31825,0.12519 h 5.96719 a 0.44846355,0.44906631 0 0 0 0.31825,-0.12519 l 1.557152,-1.57063 a 0.44846355,0.44906631 0 0 0 0.113661,-0.19348 l 1.659447,-5.70206 a 0.44846355,0.44906631 0 0 0 -0.113661,-0.44387 l -1.284367,-1.28609 a 0.44846355,0.44906631 0 0 0 -0.31825,-0.1252 h -5.512546 a 0.44846355,0.44906631 0 0 0 -0.09093,0 z M 22.55982,277.61225 a 0.44846355,0.44906631 0 0 0 -0.340983,0.33006 l -0.738794,2.93638 a 0.44846355,0.44906631 0 0 0 0.43191,0.55769 h 3.512117 l -8.706413,24.89102 a 0.44846355,0.44906631 0 0 0 0.420545,0.59183 h 12.673173 a 0.44846355,0.44906631 0 0 0 0.431911,-0.3073 l 0.829724,-2.67462 a 0.44846355,0.44906631 0 0 0 -0.431911,-0.58045 h -2.864251 l 8.615485,-25.15278 a 0.44846355,0.44906631 0 0 0 -0.420545,-0.59183 h -13.32104 a 0.44846355,0.44906631 0 0 0 -0.09093,0 z m 40.326833,0.091 a 0.44846355,0.44906631 0 0 0 -0.250054,0.14796 l -2.636929,2.98191 h -4.194082 l -2.796054,-2.90225 a 0.44846355,0.44906631 0 0 0 -0.31825,-0.13657 H 42.677772 a 0.44846355,0.44906631 0 0 0 -0.420545,0.29591 l -0.920652,2.75429 a 0.44846355,0.44906631 0 0 0 0.420545,0.59183 h 2.682393 l -8.342698,24.61786 a 0.44846355,0.44906631 0 0 0 0.420544,0.59183 h 10.661378 a 0.44846355,0.44906631 0 0 0 0.420545,-0.29591 l 0.818358,-2.40147 a 0.44846355,0.44906631 0 0 0 -0.420545,-0.59183 h -1.864036 l 5.319322,-16.76473 h 9.627066 l -6.069484,19.47349 a 0.44846355,0.44906631 0 0 0 0.431911,0.58045 h 10.286297 a 0.44846355,0.44906631 0 0 0 0.409179,-0.27315 l 0.920652,-2.20798 a 0.44846355,0.44906631 0 0 0 -0.409179,-0.61459 h -1.864036 l 5.410252,-17.04927 h 9.161056 l -6.160413,19.56454 a 0.44846355,0.44906631 0 0 0 0.431911,0.58045 h 11.297878 a 0.44846355,0.44906631 0 0 0 0.420545,-0.28453 l 0.920652,-2.40147 a 0.44846355,0.44906631 0 0 0 -0.420545,-0.60321 h -2.239116 l 6.808279,-22.13672 a 0.44846355,0.44906631 0 0 0 -0.0682,-0.40973 l -2.11409,-2.84534 a 0.44846355,0.44906631 0 0 0 -0.363714,-0.17072 h -8.081279 a 0.44846355,0.44906631 0 0 0 -0.329616,0.13657 l -2.546001,2.79982 h -4.455501 l -2.63693,-2.89087 a 0.44846355,0.44906631 0 0 0 -0.329616,-0.13657 h -6.512761 a 0.44846355,0.44906631 0 0 0 -0.09093,0 z"
           id="path5046"
           style="fill:#cccccc;fill-opacity:1;stroke:#000000;stroke-width:2.91166997;stroke-linecap:butt;stroke-linejoin:miter;stroke-miterlimit:10;stroke-dasharray:none;stroke-opacity:1"
           inkscape:connector-curvature="0" />
      </g>
      <path
         inkscape:connector-curvature="0"
         d="m 33.584912,262.78235 -1.932233,1.66167 -1.932232,5.41753 1.477589,1.47957 h 5.96719 l 1.557152,-1.57062 1.659447,-5.70206 -1.284367,-1.28609 z m -10.934164,15.27377 -0.738795,2.93639 h 4.137252 l -8.911003,25.48284 h 12.673173 l 0.829724,-2.67461 h -3.489385 l 8.820074,-25.74462 z m 40.326833,0.091 -2.761956,3.12987 h -4.591894 l -2.932447,-3.03882 H 42.677772 l -0.920652,2.75429 h 3.307528 l -8.547289,25.20969 h 10.661378 l 0.818358,-2.40146 H 45.51929 l 5.603475,-17.65248 h 10.57045 l -6.251341,20.05394 h 10.286297 l 0.920652,-2.20798 h -2.477804 l 5.694403,-17.93701 h 10.104441 l -6.34227,20.14499 h 11.297878 l 0.920652,-2.40146 h -2.852884 l 6.990136,-22.71718 -2.11409,-2.84534 h -8.081279 l -2.671028,2.93639 h -4.86468 l -2.761956,-3.02744 z"
         id="path5048"
         style="fill:#fcdee4;fill-opacity:1;stroke:#000000;stroke-width:0.36395875;stroke-linecap:butt;stroke-linejoin:miter;stroke-miterlimit:10;stroke-dasharray:none;stroke-opacity:1" />
    </g>
  </g>
</svg>
